<?xml version="1.0" encoding="utf-8"?>
<!-- Generator: Adobe Illustrator 26.3.1, SVG Export Plug-In . SVG Version: 6.00 Build 0)  -->
<svg version="1.1" id="Laag_1" xmlns="http://www.w3.org/2000/svg" xmlns:xlink="http://www.w3.org/1999/xlink" x="0px" y="0px"
	 viewBox="0 0 112 148" style="enable-background:new 0 0 112 148;" xml:space="preserve">
<style type="text/css">
	.st0{fill:#FFFFFF;}
</style>
<g id="Medium-L">
	<path id="Path" class="st0" d="M20.2,147.9h72.1c5.9,0,10.4-1.7,13.7-5c3.2-3.3,4.9-8.3,4.9-14.7v-71c0-6.5-1.7-11.4-5-14.7
		c-3.4-3.3-8.3-5-14.9-5H20.2c-6.5,0-11.5,1.7-14.8,5c-3.4,3.3-5,8.2-5,14.7v71c0,6.5,1.7,11.4,5,14.7
		C8.7,146.2,13.7,147.9,20.2,147.9z M20.8,137.1c-3.2,0-5.6-0.8-7.3-2.5c-1.7-1.7-2.5-4.1-2.5-7.4V58c0-3.3,0.8-5.8,2.5-7.4
		c1.7-1.6,4.1-2.5,7.3-2.5h69.4c3.1,0,5.6,0.8,7.3,2.5c1.7,1.6,2.6,4.1,2.6,7.4v69.3c0,3.3-0.8,5.7-2.4,7.4c-1.6,1.7-3.6,2.5-6,2.5
		H20.8z M13.7,27h83.5c-0.4-2.6-1.3-4.7-2.8-6.2c-1.5-1.5-3.7-2.2-6.6-2.2H23c-2.9,0-5.1,0.7-6.6,2.2C15,22.3,14,24.4,13.7,27z
		 M24.2,9.5h62.3c-0.2-2.5-1-4.4-2.5-5.7c-1.5-1.3-3.5-2-6.2-2h-45c-2.7,0-4.7,0.7-6.2,2C25.2,5.1,24.4,7,24.2,9.5z"/>
</g>
</svg>
