<svg xmlns="http://www.w3.org/2000/svg" width="40.011" height="40.002" viewBox="0 0 40.011 40.002">
  <path id="Union_23" data-name="Union 23" d="M3295.261-8906a4.115,4.115,0,0,1-4.106-4.1v-25.645a4.116,4.116,0,0,1,4.106-4.106H3320.9a4.117,4.117,0,0,1,4.106,4.106v25.635A4.118,4.118,0,0,1,3320.9-8906Zm-6.154-6.153a4.117,4.117,0,0,1-4.106-4.106v-25.636a4.115,4.115,0,0,1,4.106-4.106h25.644a4.117,4.117,0,0,1,4.106,4.106v.51H3293.72a4.115,4.115,0,0,0-4.1,4.106v25.126Z" transform="translate(-3285 8946.001)" fill="#fff"/>
</svg>
