<svg xmlns="http://www.w3.org/2000/svg" width="52.5" height="33.75" viewBox="0 0 52.5 33.75">
  <path id="Artist" d="M39.545,27.188a7.032,7.032,0,1,0-7.159-7.031A7.117,7.117,0,0,0,39.545,27.188Zm-19.091,0A7.032,7.032,0,1,0,13.3,20.156,7.117,7.117,0,0,0,20.455,27.188Zm0,5.156c-5.608,0-16.7,2.7-16.7,8.2v6.328H37.5V40.547C37.5,35.039,26.063,32.344,20.455,32.344Zm19.091,1.289a12.735,12.735,0,0,0-2.045.117c2.745,1.992,3.75,3.281,3.75,6.8v6.328h15V40.547C56.25,35.039,45.154,33.633,39.545,33.633Z" transform="translate(-3.75 -13.125)" fill="#fff"/>
</svg>
