<?xml version="1.0" encoding="utf-8"?>
<!-- Generator: Adobe Illustrator 26.3.1, SVG Export Plug-In . SVG Version: 6.00 Build 0)  -->
<svg version="1.1" id="Laag_1" xmlns="http://www.w3.org/2000/svg" xmlns:xlink="http://www.w3.org/1999/xlink" x="0px" y="0px"
	 viewBox="0 0 129 131" style="enable-background:new 0 0 129 131;" xml:space="preserve">
<style type="text/css">
	.st0{fill:#FFFFFF;}
</style>
<g id="Medium-L">
	<path id="Path" class="st0" d="M65,130.1c1.6,0,3-0.6,4.2-1.7s1.7-2.5,1.7-4.2l0.1-46.4l18.7-17.3c7.7,1,15-2,21.9-9L76.3,16.1
		c-3.4,3.4-5.9,7-7.3,10.7c-1.4,3.7-1.9,7.4-1.4,11.1L9,100.8c-1.2,1.4-1.8,2.8-1.8,4.4c0,1.6,0.8,3.2,2.4,4.9L1,120.9
		c-0.4,0.5-0.6,1.2-0.6,1.8c0,0.7,0.3,1.3,0.9,1.9l1.8,1.8c0.6,0.5,1.2,0.8,1.9,0.9c0.7,0,1.3-0.2,1.9-0.7l10.7-8.6
		c1.6,1.6,3.2,2.4,4.8,2.4c1.6,0,3.1-0.6,4.4-1.9l32.2-29.8v35.4c0,1.7,0.6,3,1.7,4.2C61.9,129.5,63.3,130.1,65,130.1z M15.5,105.9
		L71,47.2c0.5,0.9,1.1,1.9,1.8,2.8c0.7,0.9,1.4,1.8,2.3,2.7c0.8,0.9,1.6,1.7,2.5,2.4c0.9,0.7,1.8,1.3,2.7,1.9l-58.3,55.3L15.5,105.9
		z M82.5,9.9l35.4,35.4c3.8-3.7,6.3-7.7,7.7-11.9c1.4-4.2,1.5-8.5,0.4-12.7c-1.1-4.2-3.5-8.1-7.1-11.7c-3.6-3.6-7.5-6-11.7-7.1
		c-4.2-1.1-8.4-1-12.6,0.4C90.2,3.6,86.2,6.1,82.5,9.9z"/>
</g>
</svg>
