<!--suppress XmlHighlighting -->
<svg xmlns="http://www.w3.org/2000/svg" width="19.87" height="19.871" viewBox="0 0 19.87 19.871">
  <path id="Union_24" data-name="Union 24" d="M-252.716-6097.886l-6.521-6.521-6.521,6.521a2,2,0,0,1-2.828,0,2,2,0,0,1,0-2.829l6.521-6.521-6.521-6.521a2,2,0,0,1,0-2.828,2,2,0,0,1,2.828,0l6.521,6.521,6.521-6.521a2,2,0,0,1,2.829,0,2,2,0,0,1,0,2.828l-6.521,6.521,6.521,6.521a2,2,0,0,1,0,2.829,2,2,0,0,1-1.415.585A2,2,0,0,1-252.716-6097.886Z" transform="translate(269.172 6117.171)"/>
</svg>
