<?xml version="1.0" encoding="utf-8"?>
<!-- Generator: Adobe Illustrator 26.3.1, SVG Export Plug-In . SVG Version: 6.00 Build 0)  -->
<svg version="1.1" id="Laag_1" xmlns="http://www.w3.org/2000/svg" xmlns:xlink="http://www.w3.org/1999/xlink" x="0px" y="0px"
	 viewBox="0 0 130 130" style="enable-background:new 0 0 130 130;" xml:space="preserve">
<style type="text/css">
	.st0{fill:#FFFFFF;}
</style>
<g id="Medium-L">
	<path id="Path" class="st0" d="M64.5,129.1c8.9,0,17.2-1.7,24.9-5c7.8-3.3,14.6-8,20.5-13.9c5.9-5.9,10.6-12.8,13.9-20.6
		s5-16,5-24.9c0-8.8-1.7-17.1-5-24.9c-3.4-7.8-8-14.6-14-20.6C104,13.4,97.2,8.7,89.4,5.4c-7.8-3.3-16.1-5-24.9-5
		c-8.8,0-17.1,1.7-24.9,5c-7.8,3.3-14.6,8-20.5,13.9C13.2,25.3,8.6,32.1,5.2,39.9c-3.4,7.8-5,16-5,24.9c0,8.8,1.7,17.1,5,24.9
		c3.4,7.8,8,14.6,13.9,20.6c5.9,5.9,12.8,10.6,20.5,13.9C47.4,127.4,55.7,129.1,64.5,129.1z M64.6,31.6c1.5,0,2.8,0.5,3.7,1.4
		c1,0.9,1.4,2.1,1.4,3.6V70l-0.6,12.7l6.4-7.6l8.1-8.3c0.9-1,2.1-1.5,3.5-1.5c1.4,0,2.5,0.4,3.4,1.3c0.9,0.9,1.4,2,1.4,3.3
		c0,1.4-0.5,2.5-1.4,3.5l-21.9,22c-1.2,1.3-2.6,1.9-4.1,1.9c-1.4,0-2.8-0.6-4-1.9l-21.8-22c-0.9-0.9-1.4-2.1-1.4-3.5
		c0-1.3,0.4-2.4,1.3-3.3c0.9-0.9,2-1.3,3.4-1.3c1.4,0,2.6,0.5,3.5,1.5l8.1,8.4l6.3,7.5L59.5,70V36.6c0-1.5,0.5-2.7,1.5-3.6
		C61.9,32.1,63.1,31.6,64.6,31.6z"/>
</g>
</svg>
