<svg xmlns="http://www.w3.org/2000/svg" width="50.005" height="50" viewBox="0 0 50.005 50">
  <path id="Genre" d="M49.089,5.333,44.674.919a3.13,3.13,0,0,0-4.424,0L33.618,7.55a3.13,3.13,0,0,0,0,4.424l-5.294,5.284c-4.434-2.832-9.806-2.823-13.039.41a8.17,8.17,0,0,0-2,3.311,5.008,5.008,0,0,1-4.17,3.409A9.915,9.915,0,0,0,2.92,27.2c-4.512,4.5-3.7,12.609,1.787,18.1s13.6,6.29,18.1,1.787a9.917,9.917,0,0,0,2.813-6.2,5.019,5.019,0,0,1,.924-2.358,4.842,4.842,0,0,1,2.485-1.812,8.17,8.17,0,0,0,3.311-2c3.233-3.233,3.233-8.6.41-13.039l5.294-5.294a3.13,3.13,0,0,0,4.424,0L49.1,9.748A3.127,3.127,0,0,0,49.089,5.333ZM20.315,34.38A4.688,4.688,0,1,1,25,29.692,4.689,4.689,0,0,1,20.315,34.38Z" transform="translate(0 -0.003)" fill="#fff"/>
</svg>
