<?xml version="1.0" encoding="utf-8"?>
<!-- Generator: Adobe Illustrator 26.3.1, SVG Export Plug-In . SVG Version: 6.00 Build 0)  -->
<svg version="1.1" id="Laag_1" xmlns="http://www.w3.org/2000/svg" xmlns:xlink="http://www.w3.org/1999/xlink" x="0px" y="0px"
	 viewBox="0 0 163 136" style="enable-background:new 0 0 163 136;" xml:space="preserve">
<style type="text/css">
	.st0{fill:#FFFFFF;}
</style>
<g id="Medium-L">
	<path id="Path" class="st0" d="M1.5,123.9c-0.7,1.7-1,3.4-0.8,5.1c0.2,1.7,0.9,3.1,2,4.3s2.9,1.7,5.1,1.7c1.2,0,2.4-0.3,3.5-0.8
		c1.1-0.5,2.4-1.4,3.9-2.7L32.6,117c0.7-0.6,1.3-0.9,1.7-0.9c0.4,0,1.1,0.3,1.8,0.9l17.4,14.5c1.5,1.2,2.8,2.1,3.9,2.7
		c1.1,0.5,2.3,0.8,3.5,0.8c2.2,0,3.9-0.6,5.1-1.7c1.2-1.1,1.8-2.6,2-4.3c0.2-1.7-0.1-3.4-0.9-5.1L39.3,60.7v-30
		c0-7.2,0.4-13.3,1.2-18.2c0.8-5,1.2-8,1.2-9c0-0.9-0.3-1.6-0.8-2.1c-0.5-0.5-1.2-0.8-2.1-0.8c-1,0-2.2,0.8-3.7,2.4l-14,16
		c-0.6,0.7-0.8,1.4-0.7,2.1c0.1,0.7,0.6,1.3,1.3,1.6c2.8,1.2,4.7,2.2,5.9,3.2c1.1,0.9,1.7,2.5,1.7,4.8v29.9L1.5,123.9z M49,112.5
		c-0.8,0-1.6-0.3-2.2-0.9s-0.9-1.3-0.9-2.2c0-0.9,0.3-1.6,0.9-2.2c0.6-0.6,1.3-1,2.1-1c0.9,0,1.7,0.3,2.3,0.9c0.6,0.6,1,1.4,1,2.3
		c0,0.8-0.3,1.5-1,2.2S49.9,112.5,49,112.5z M45.6,104.2c-0.8,0-1.6-0.3-2.2-0.9c-0.6-0.6-1-1.3-1-2.2c0-0.8,0.3-1.6,1-2.3
		c0.6-0.7,1.4-1,2.2-1c0.9,0,1.6,0.3,2.2,0.9c0.6,0.6,1,1.4,1,2.3c0,0.8-0.3,1.6-1,2.2C47.2,103.9,46.4,104.2,45.6,104.2z
		 M42.1,95.9c-0.9,0-1.6-0.3-2.2-0.9c-0.6-0.6-0.9-1.3-0.9-2.2c0-0.9,0.3-1.6,0.9-2.3s1.4-1,2.2-1c0.8,0,1.6,0.3,2.2,1
		c0.6,0.6,0.9,1.4,0.9,2.3c0,0.8-0.3,1.5-0.9,2.1C43.6,95.6,42.9,95.9,42.1,95.9z M84.9,135.1c8.4,0,15.2-2.3,20.4-6.9
		c5.2-4.6,7.7-10.6,7.7-18.2c0-3.3-0.4-6-1.2-8.4c-0.8-2.3-1.7-4.4-2.7-6c-1-1.7-1.9-3.2-2.7-4.4c-0.8-1.3-1.2-2.5-1.2-3.6
		c0-1.7,0.4-3.4,1.1-4.9c0.7-1.5,1.4-3.2,2.2-4.8c0.7-1.7,1.1-3.6,1.1-5.7c0-2.2-0.7-4.1-2-5.5s-3.1-2.1-5.1-2.1
		c-1.8,0-3.3,0.5-4.5,1.5s-2.1,2-2.9,3c-0.6,0.8-1.2,1.5-1.7,2.1c-0.5,0.6-1,0.9-1.5,0.9c-0.6,0-1-0.3-1.3-0.9s-0.5-1.3-0.6-2.1
		s-0.2-1.6-0.2-2.3l0-38.7c0-0.9,0.1-1.5,0.2-1.7c0.1-0.3,0.5-0.5,1.1-0.8c0.7-0.3,1.1-0.6,1.4-1.1c0.3-0.4,0.4-1.1,0.5-1.9l1.3-13
		c0.1-1.2-0.3-2.2-1.3-3.1l-5.4-4.7c-0.8-0.7-1.6-1-2.6-1c-0.9,0-1.8,0.3-2.5,1l-5.5,4.7c-1,0.9-1.4,1.9-1.3,3.1l1.3,13
		c0.1,1.6,0.8,2.6,1.9,3c0.5,0.2,0.8,0.4,1,0.7c0.2,0.3,0.2,0.9,0.2,1.8l0.1,38.7c0,0.8-0.1,1.7-0.2,2.5c-0.1,0.8-0.4,1.5-0.7,2
		C78.9,71.7,78.5,72,78,72c-0.5,0-1-0.3-1.5-0.9c-0.5-0.6-1.1-1.3-1.8-2.1c-0.8-1-1.8-2-2.9-3c-1.2-1-2.6-1.5-4.4-1.5
		c-2.1,0-3.8,0.7-5.1,2.1c-1.3,1.4-2,3.2-2,5.5c0,2.1,0.4,4,1.1,5.7c0.7,1.7,1.4,3.3,2.2,4.8s1.1,3.2,1.1,4.9c0,1.2-0.5,2.6-1.5,4
		s-2,3.2-3.1,5.3l9.9,22.5c0.9,2,1.5,3.7,1.9,5s0.6,2.7,0.6,4c0,1.5-0.3,2.9-0.8,4.2C75.6,134.3,80.1,135.1,84.9,135.1z M71.2,109
		c-0.7-0.2-1.2-0.7-1.5-1.4c-0.3-0.7-0.4-1.4-0.1-2l5.2-14.7c0.2-0.7,0.7-1.2,1.4-1.5s1.4-0.3,2.1-0.1c0.7,0.2,1.2,0.7,1.5,1.3
		c0.4,0.7,0.4,1.4,0.2,2.1l-5.2,14.7c-0.2,0.7-0.7,1.2-1.4,1.5C72.6,109.2,71.9,109.2,71.2,109z M98.5,109c-0.7,0.2-1.4,0.2-2.1-0.1
		c-0.7-0.3-1.1-0.8-1.3-1.5l-5.2-14.7c-0.2-0.7-0.2-1.4,0.2-2.1s0.9-1.1,1.5-1.3c0.7-0.2,1.4-0.2,2.1,0.1c0.7,0.3,1.1,0.8,1.4,1.5
		l5.2,14.7c0.2,0.7,0.2,1.4-0.2,2C99.6,108.3,99.1,108.8,98.5,109z M134.4,134.8c8.6,0,15.4-1.9,20.4-5.7c5.1-3.8,7.6-8.9,7.6-15.4
		c0-3.2-0.4-5.9-1.3-8c-0.8-2.1-1.8-4-3-5.5c-1.1-1.5-2.1-2.9-3-4.2s-1.3-2.6-1.3-4.1c0-2.2,0.3-4.3,0.9-6.3c0.6-2,0.9-4.4,0.9-7.1
		c0-4.2-1.5-7.6-4.4-10.3c-2.9-2.6-7-4.3-12.2-4.9V25.5c0-1.3,0.1-2.2,0.4-2.8c0.2-0.5,0.7-1.1,1.5-1.6c1.2-0.7,1.7-1.6,1.6-2.7
		l-1-15.6c-0.1-1.5-0.8-2.2-2.2-2.2h-10.4c-1.3,0-2.1,0.7-2.1,2.2l-0.9,15.6c-0.1,1,0.4,1.9,1.6,2.7c0.8,0.5,1.3,1.1,1.5,1.6
		c0.2,0.5,0.4,1.5,0.4,2.8v37.9c-5.2,0.6-9.3,2.3-12.2,4.9c-2.9,2.6-4.4,6-4.4,10.3c0,2.6,0.3,4.8,0.9,6.8c0.6,2,0.9,4.1,0.9,6.2
		c0,0.6-0.1,1.2-0.3,1.7s-0.4,1.1-0.8,1.6c0.9,1.8,1.7,4,2.5,6.5c0.7,2.5,1.1,5.4,1.1,8.6c0,6.6-1.8,12.4-5.4,17.3
		C117,132.3,124.4,134.8,134.4,134.8z M134.4,97.1c-2,0-3.6-0.7-5-2.1c-1.4-1.4-2-3-2-4.9c0-1.9,0.7-3.6,2.1-5s3-2.1,5-2.1
		c1.9,0,3.6,0.7,4.9,2.1s2,3,2,5c0,1.9-0.7,3.6-2,4.9S136.3,97.1,134.4,97.1z M126.2,115c-0.8,0-1.5-0.3-2-0.8
		c-0.5-0.6-0.8-1.2-0.8-2s0.3-1.4,0.8-2c0.6-0.6,1.2-0.8,2-0.8h16.3c0.8,0,1.4,0.3,2,0.8c0.5,0.5,0.8,1.2,0.8,2c0,0.8-0.3,1.4-0.8,2
		c-0.5,0.6-1.2,0.8-2,0.8H126.2z"/>
</g>
</svg>
