<svg id="Laag_1" data-name="Laag 1" xmlns="http://www.w3.org/2000/svg" viewBox="0 0 280.28 92.04"><defs><style>.cls-1{fill:#fff;}</style></defs><path class="cls-1" d="M14.37,27.4c4-.16,5.38-.55,6.92-1.35a1.43,1.43,0,0,1,1.65.27l.4.4a1.41,1.41,0,0,1,.4,1.22c-.08.57-.19,1.2-.34,1.89a1.44,1.44,0,0,0,2.41,1.32,28.07,28.07,0,0,1,4.65-3.57c6.19-4,13.68-2.66,12.82,5.62S34,52.35,32.55,57.68c-.86,3.17,1,4.68,3.17,3.17,2.6-1.94,6-7.47,8.33-11.13a1.42,1.42,0,0,1,2-.45l.08,0a1.38,1.38,0,0,1,.37,1.81c-2.44,4.39-6,11.55-11,15.19-5.25,4-15,3-14.9-5.69.29-9.86,13.61-23.55,10.8-26.93C28.85,30.52,17.06,44.08,13.1,66a1.44,1.44,0,0,1-1.41,1.18H1.43a1.43,1.43,0,0,1-1.32-2C9.33,43.08,11.71,36.7,13,28.61A1.44,1.44,0,0,1,14.37,27.4Z"/><path class="cls-1" d="M56.67,31.32c11.16-10.08,19.66-6.62,19,.65C74.81,42.27,62,50.33,54.36,51.49c.29,4.53,2.45,8,7.13,8,4,0,10.73-4.18,15-10.59a2.55,2.55,0,0,1,2.38,1.37C72,63.08,60.92,68.62,54.51,68.62,39.46,68.62,38.81,47.53,56.67,31.32Zm6.48.65c-4.75,3.31-8.07,10.15-8.71,16.2C63.44,45.8,69.56,27.29,63.15,32Z"/><path class="cls-1" d="M92.72,63.54a1.85,1.85,0,0,0-3.13-.49c-2.85,3.35-6,5.5-9.38,5.5-7.78,0-9.94-8.28-5.62-16.27s8.77-14.7,9.74-23.38A1.86,1.86,0,0,1,86,27.27a14.45,14.45,0,0,0,6.09-1.41,1.86,1.86,0,0,1,1.48-.08l.23.08a1.89,1.89,0,0,1,1.22,2c-1.17,9.54-8,19.34-9.94,25.84-1.51,4.75,1.44,6,3.74,3.53,3.16-3.38,5.39-10.13,9.7-20,0,0,0-.07,0-.11a38.43,38.43,0,0,0,2.22-8.51A1.84,1.84,0,0,1,102.5,27a27.53,27.53,0,0,0,7.86-1.54,1.89,1.89,0,0,1,2,.37h0a1.85,1.85,0,0,1,.56,1.68c-1.51,8-6.11,15.25-8.18,23.2-2,7.56,1.72,11.09,6.26,6.2,2.93-3.22,5.46-11.44,6.27-18a2,2,0,0,0-.24-1.14,10.27,10.27,0,0,1-1.28-7.67c1.65-6.59,10.41-7.91,11.29.21a2.83,2.83,0,0,1,0,.29c0,.65-.06,1.37-.14,2.13a1.86,1.86,0,0,0,1.82,2.07c3.57,0,7.07-.76,9.12-2.32,1.08.5,1.37,1.08.72,2.3-2.54,2.4-7.25,4.38-12.17,4.88a1.83,1.83,0,0,0-1.54,1.27c-4.13,12.22-13.85,27.62-24.38,27.62A8,8,0,0,1,92.72,63.54Z"/><path class="cls-1" d="M136.44,65.81c7.28-.28,13,2.09,18.22,5,6.12-18.14,5.76-47,34-62.21C184.18,5.83,178,4.68,170.5,5.83,155.16,8.14,146.81,20.88,148,28.73a6.45,6.45,0,0,0,9.21,5.11c.65,7.93-10,16.28-19.58,8.64C125.79,33,137.45,5.62,169.57.79c25.2-3.81,42.62,6.48,40.32,23.48-1.44,10.22-8.28,16.56-16.49,19.66,21.31,7.77,14.19,45.14-15.77,45.14-8.14,0-14.54-2.88-20.09-6.19a38,38,0,0,1-10.15,6.19C115.78,102.32,107.93,67,136.44,65.81Zm6.05,20a17.1,17.1,0,0,0,8.57-7.13c-5-3.45-9.43-6.33-14.26-6.33C125.93,72.3,129,90.73,142.49,85.76Zm37.73-7.2c15.2-5.69,14.48-34.27-4.53-31.68-2.74,10.29-5.76,20.88-12,29.3C168.92,79.06,174,80.86,180.22,78.56Zm16-56.74a15.76,15.76,0,0,0-3.46-9.65c-9.07,5.9-12.53,17.5-15.84,30.1C189.51,40.83,196.57,32.55,196.21,21.82Z"/><path class="cls-1" d="M225.29,28.08c4.39-3.24,9-4.53,12.6-2.95,3.39,1.44,5.11,5.62,4.18,12.6a29.64,29.64,0,0,0,13.61-5.25c1.08.5,1.37,1.08.72,2.3-3.1,2.95-9,7.2-15.34,8.5-2.38,9.14-9.58,25-21.67,25C205.78,68.33,208.66,40.47,225.29,28.08Zm10.37,15.85c-3.24-1.45-3.89-5.12-3.1-7.57A6.81,6.81,0,0,1,237.75,32c-.29-3.31-2-4.17-4.68-2.59-10.44,6.19-14.33,29.67-7.42,29.67C228.6,59.05,232.71,53.36,235.66,43.93Z"/><path class="cls-1" d="M250,49c.13-2.87.41-6,.8-9A17.36,17.36,0,0,1,262,25.86l.09,0a2.63,2.63,0,0,1,2.8.6h0a.76.76,0,0,1,.18.84,72.06,72.06,0,0,0-4.12,13.83.65.65,0,0,0,1.07.6,33,33,0,0,0,7.84-11.12A6.09,6.09,0,0,1,279.93,29l.05.06a1.35,1.35,0,0,1,.19,1.38c-3.93,9.51-11.76,13.79-19.65,16.88a.61.61,0,0,0-.41.55,31.4,31.4,0,0,0,0,4.85c.36,6,4.46,8.86,8.57,5.33A42.74,42.74,0,0,0,275.13,50a1.73,1.73,0,0,1,2.73-.21h0a.83.83,0,0,1,.08,1c-2.67,4.73-10.51,17.81-17.95,17.81-6.61,0-9-6.47-9.75-12.28a.64.64,0,0,0-1.19-.25,20.1,20.1,0,0,0-2.17,7.45,4.06,4.06,0,0,1-4,3.64h-.17a5.09,5.09,0,0,1-4.33-7.81c2.79-4.32,6.9-7,11.36-9.79A.66.66,0,0,0,250,49Z"/></svg>