<?xml version="1.0" encoding="utf-8"?>
<!-- Generator: Adobe Illustrator 26.3.1, SVG Export Plug-In . SVG Version: 6.00 Build 0)  -->
<svg version="1.1" id="Laag_1" xmlns="http://www.w3.org/2000/svg" xmlns:xlink="http://www.w3.org/1999/xlink" x="0px" y="0px"
	 viewBox="0 0 120 123" style="enable-background:new 0 0 120 123;" xml:space="preserve">
<style type="text/css">
	.st0{fill:#FFFFFF;}
</style>
<g id="Medium-L">
	<path id="Path" class="st0" d="M25.6,84.6h18.2c0.6,0,1.2,0.2,1.6,0.6l27.4,25.3c1.4,1.3,2.8,2.3,4.1,2.9c1.3,0.6,2.7,0.9,4.1,0.9
		c1.8,0,3.2-0.5,4.4-1.4s2-2.3,2.5-4.1l-72.1-72c-2.1,2.2-3.1,5.4-3.1,9.8v24.5c0,4.5,1.1,7.8,3.2,10.1
		C18.1,83.5,21.3,84.6,25.6,84.6z M88.3,76.4V10.8c0-2.1-0.7-4-2.1-5.4c-1.4-1.5-3.2-2.2-5.4-2.2c-1.5,0-2.8,0.3-4,1
		s-2.6,1.7-4.1,3.2L47.2,31c-0.4,0.3-0.8,0.5-1.2,0.5h-2.7L88.3,76.4z M109.7,120.6c0.9,0.9,1.9,1.3,3.2,1.3c1.2,0,2.3-0.4,3.1-1.3
		c0.9-0.9,1.3-1.9,1.3-3.2c0-1.2-0.4-2.3-1.3-3.1L7.8,6.2C6.9,5.3,5.9,4.9,4.6,4.9c-1.2,0-2.3,0.4-3.2,1.3C0.6,7,0.2,8.1,0.2,9.3
		c0,1.3,0.4,2.3,1.2,3.2L109.7,120.6z"/>
</g>
</svg>
