<svg xmlns="http://www.w3.org/2000/svg" width="18.75" height="26.251" viewBox="0 0 18.75 26.251">
  <path id="Union_20" data-name="Union 20" d="M2837.515-1658.812a1.815,1.815,0,0,0-.809-.187,1.878,1.878,0,0,0-1.172.41l-7.641,6.153h-6.187a1.881,1.881,0,0,0-1.875,1.875v9.375a1.881,1.881,0,0,0,1.875,1.875h6.188l7.641,6.152a1.9,1.9,0,0,0,1.172.41,1.815,1.815,0,0,0,.809-.188,1.874,1.874,0,0,0,1.066-1.687v-22.5A1.849,1.849,0,0,0,2837.515-1658.812Z" transform="translate(-2819.832 1659)" fill="#fff"/>
</svg>
