<?xml version="1.0" encoding="utf-8"?>
<!-- Generator: Adobe Illustrator 26.3.1, SVG Export Plug-In . SVG Version: 6.00 Build 0)  -->
<svg version="1.1" id="Laag_1" xmlns="http://www.w3.org/2000/svg" xmlns:xlink="http://www.w3.org/1999/xlink" x="0px" y="0px"
	 viewBox="0 0 177 101" style="enable-background:new 0 0 177 101;" xml:space="preserve">
<style type="text/css">
	.st0{fill:#FFFFFF;}
</style>
<g id="Medium-L">
	<path id="Path" class="st0" d="M9.5,100.5c1.3,0,2.5-0.2,3.7-0.6c1.2-0.4,2.4-1,3.6-1.7l64.7-38c2.1-1.3,3.7-2.7,4.8-4.2
		c1.1-1.6,1.6-3.3,1.6-5.2c0-1.9-0.5-3.7-1.6-5.2c-1.1-1.5-2.7-2.9-4.8-4.2l-64.7-38c-1.3-0.7-2.5-1.3-3.7-1.7C12,1.2,10.8,1,9.5,1
		C6.9,1,4.7,1.9,2.9,3.8C1,5.7,0.1,8.4,0.1,12v77.4c0,3.6,0.9,6.3,2.8,8.2C4.8,99.5,7,100.5,9.5,100.5z M97,100.5
		c1.3,0,2.5-0.2,3.7-0.6c1.2-0.4,2.4-1,3.6-1.7l64.7-38c2.1-1.3,3.7-2.7,4.8-4.2c1.1-1.6,1.6-3.3,1.6-5.2c0-1.9-0.5-3.7-1.6-5.2
		c-1.1-1.5-2.7-2.9-4.8-4.2l-64.7-38c-1.3-0.7-2.5-1.3-3.7-1.7C99.5,1.2,98.3,1,97,1c-2.5,0-4.7,0.9-6.6,2.8
		c-1.9,1.9-2.8,4.6-2.8,8.2v77.4c0,3.6,0.9,6.3,2.8,8.2C92.3,99.5,94.5,100.5,97,100.5z"/>
</g>
</svg>
