<?xml version="1.0" encoding="utf-8"?>
<!-- Generator: Adobe Illustrator 26.3.1, SVG Export Plug-In . SVG Version: 6.00 Build 0)  -->
<svg version="1.1" id="Laag_1" xmlns="http://www.w3.org/2000/svg" xmlns:xlink="http://www.w3.org/1999/xlink" x="0px" y="0px"
	 viewBox="0 0 192 105" style="enable-background:new 0 0 192 105;" xml:space="preserve">
<style type="text/css">
	.st0{fill:#FFFFFF;}
</style>
<g id="Medium-L">
	<path id="path16" class="st0" d="M117.2,104.3h14.5c5.6,0,8.4-2.8,8.4-8.4V9.6c0-5.6-2.8-8.4-8.4-8.4h-14.5c-5.6,0-8.4,2.8-8.4,8.4
		v86.2C108.8,101.5,111.6,104.3,117.2,104.3z M167.8,104.3h14.5c5.6,0,8.4-2.8,8.4-8.4V9.6c0-5.6-2.8-8.4-8.4-8.4h-14.5
		c-5.6,0-8.4,2.8-8.4,8.4v86.2C159.4,101.5,162.2,104.3,167.8,104.3z M9.9,102.5c1.3,0,2.5-0.2,3.7-0.6c1.2-0.4,2.4-1,3.6-1.7
		l64.7-38c2.1-1.2,3.7-2.6,4.8-4.2c1.1-1.6,1.6-3.3,1.6-5.2c0-1.9-0.5-3.7-1.6-5.2c-1.1-1.5-2.7-2.9-4.8-4.2l-64.7-38
		c-1.3-0.7-2.5-1.3-3.7-1.7C12.3,3.2,11.1,3,9.8,3C7.3,3,5.1,3.9,3.2,5.8C1.4,7.7,0.4,10.4,0.4,14v77.5c0,3.6,0.9,6.3,2.8,8.2
		C5.1,101.5,7.3,102.5,9.9,102.5z"/>
</g>
</svg>
