<?xml version="1.0" encoding="utf-8"?>
<!-- Generator: Adobe Illustrator 26.3.1, SVG Export Plug-In . SVG Version: 6.00 Build 0)  -->
<svg version="1.1" id="Laag_1" xmlns="http://www.w3.org/2000/svg" xmlns:xlink="http://www.w3.org/1999/xlink" x="0px" y="0px"
	 viewBox="0 0 130 128" style="enable-background:new 0 0 130 128;" xml:space="preserve">
<style type="text/css">
	.st0{fill:#FFFFFF;}
</style>
<g id="Medium-L">
	<path id="Path" class="st0" d="M128.8,29.7V6.4c0-1.8-0.6-3.2-1.9-4.2c-1.2-1-2.7-1.3-4.4-0.9L90.6,8.2c-4.2,0.9-6.2,3.1-6.2,6.7
		l0.1,69.4c0.2,3.1-1,4.9-3.8,5.4l-10.1,2.1c-6.4,1.4-11.1,3.6-14.2,6.8c-3.1,3.2-4.6,7.2-4.6,12.1c0,4.9,1.7,8.9,5.1,12
		c3.4,3.1,7.8,4.6,13.1,4.6c3.3,0,6.8-0.9,10.4-2.6c3.6-1.7,6.7-4.5,9.2-8.2s3.8-8.5,3.8-14.5V44.9c0-1.6,0.2-2.7,0.6-3.2
		c0.4-0.5,1.4-0.9,2.8-1.2l28.2-6.2c1.1-0.2,2-0.8,2.7-1.6C128.4,31.9,128.8,30.9,128.8,29.7z M4.5,32.3H61c1.1,0,2.1-0.4,2.9-1.2
		c0.8-0.8,1.2-1.7,1.2-2.8c0-1.1-0.4-2.1-1.2-2.9c-0.8-0.8-1.7-1.2-2.9-1.2H4.5c-1.2,0-2.1,0.4-2.9,1.2c-0.8,0.8-1.2,1.7-1.2,2.9
		c0,1.1,0.4,2,1.2,2.8C2.3,31.9,3.3,32.3,4.5,32.3z M4.5,54.5H61c1.1,0,2.1-0.4,2.9-1.2c0.8-0.8,1.2-1.7,1.2-2.9
		c0-1.1-0.4-2.1-1.2-2.8c-0.8-0.8-1.7-1.2-2.9-1.2H4.5c-1.2,0-2.1,0.4-2.9,1.2c-0.8,0.8-1.2,1.7-1.2,2.8c0,1.1,0.4,2.1,1.2,2.9
		C2.4,54.1,3.3,54.5,4.5,54.5z M4.5,76.7H61c1.1,0,2.1-0.4,2.9-1.2c0.8-0.8,1.2-1.7,1.2-2.9c0-1.1-0.4-2-1.2-2.8
		c-0.8-0.8-1.7-1.2-2.9-1.2H4.5c-1.2,0-2.1,0.4-2.9,1.2c-0.8,0.8-1.2,1.7-1.2,2.8c0,1.1,0.4,2.1,1.2,2.9C2.4,76.3,3.3,76.7,4.5,76.7
		z"/>
</g>
</svg>
