<?xml version="1.0" encoding="utf-8"?>
<!-- Generator: Adobe Illustrator 26.3.1, SVG Export Plug-In . SVG Version: 6.00 Build 0)  -->
<svg version="1.1" id="Laag_1" xmlns="http://www.w3.org/2000/svg" xmlns:xlink="http://www.w3.org/1999/xlink" x="0px" y="0px"
	 viewBox="0 0 177 101" style="enable-background:new 0 0 177 101;" xml:space="preserve">
<style type="text/css">
	.st0{fill:#FFFFFF;}
</style>
<g id="Medium-L">
	<path id="Path" class="st0" d="M79.1,100.5c2.5,0,4.7-0.9,6.6-2.8s2.8-4.6,2.8-8.2V12c0-3.6-0.9-6.4-2.8-8.2
		c-1.8-1.9-4-2.8-6.6-2.8c-1.3,0-2.5,0.2-3.7,0.6c-1.2,0.4-2.4,1-3.7,1.7L7,41.3c-2.1,1.3-3.7,2.6-4.8,4.2c-1.1,1.5-1.6,3.3-1.6,5.2
		c0,1.9,0.5,3.7,1.6,5.2c1.1,1.6,2.7,3,4.8,4.2l64.7,38c1.2,0.7,2.5,1.3,3.6,1.7C76.6,100.3,77.8,100.5,79.1,100.5z M166.6,100.5
		c2.5,0,4.7-0.9,6.6-2.8s2.8-4.6,2.8-8.2V12c0-3.6-0.9-6.4-2.8-8.2c-1.9-1.9-4.1-2.8-6.6-2.8c-1.3,0-2.5,0.2-3.7,0.6
		c-1.2,0.4-2.4,1-3.6,1.7l-64.7,38c-2.2,1.3-3.8,2.6-4.8,4.2c-1.1,1.5-1.6,3.3-1.6,5.2c0,1.9,0.5,3.7,1.6,5.2c1.1,1.6,2.7,3,4.8,4.2
		l64.7,38c1.2,0.7,2.5,1.3,3.6,1.7C164.1,100.3,165.3,100.5,166.6,100.5z"/>
</g>
</svg>
