<?xml version="1.0" encoding="utf-8"?>
<!-- Generator: Adobe Illustrator 26.3.1, SVG Export Plug-In . SVG Version: 6.00 Build 0)  -->
<svg version="1.1" id="Laag_1" xmlns="http://www.w3.org/2000/svg" xmlns:xlink="http://www.w3.org/1999/xlink" x="0px" y="0px"
	 viewBox="0 0 125 126" style="enable-background:new 0 0 125 126;" xml:space="preserve">
<style type="text/css">
	.st0{fill:#FFFFFF;}
</style>
<g id="Medium-L">
	<path id="Path" class="st0" d="M0.9,51.9c0,6.9,1.3,13.5,3.9,19.6S11.1,83,15.7,87.6s10,8.2,16.1,10.8c6.1,2.6,12.6,3.9,19.6,3.9
		c5.3,0,10.4-0.8,15.2-2.4c4.8-1.6,9.2-3.8,13.3-6.7l30.3,30.3c0.8,0.8,1.7,1.4,2.8,1.8c1,0.4,2.1,0.6,3.2,0.6
		c2.4,0,4.4-0.8,5.9-2.4s2.3-3.6,2.3-5.9c0-1.1-0.2-2.2-0.6-3.2c-0.4-1-1-1.9-1.7-2.7L91.8,81.7c3.1-4.1,5.6-8.7,7.3-13.8
		c1.7-5.1,2.6-10.4,2.6-15.9c0-7-1.3-13.5-3.9-19.6c-2.6-6.1-6.2-11.4-10.8-16.1c-4.6-4.6-10-8.3-16.1-10.9S58.3,1.5,51.3,1.5
		c-7,0-13.5,1.3-19.6,3.9s-11.4,6.2-16.1,10.9c-4.6,4.6-8.2,10-10.9,16.1C2.2,38.5,0.9,45,0.9,51.9z M12.5,51.9c0-5.4,1-10.4,3-15.1
		s4.8-8.8,8.4-12.4s7.7-6.3,12.4-8.4s9.7-3,15.1-3c5.3,0,10.4,1,15,3s8.8,4.8,12.4,8.4s6.4,7.7,8.4,12.4c2,4.7,3,9.7,3,15.1
		c0,5.4-1,10.4-3,15.1c-2,4.7-4.8,8.8-8.4,12.4c-3.6,3.6-7.7,6.4-12.4,8.4s-9.7,3-15,3c-5.4,0-10.4-1-15.1-3s-8.8-4.8-12.4-8.4
		c-3.6-3.6-6.4-7.7-8.4-12.4S12.5,57.3,12.5,51.9z"/>
</g>
</svg>
