<svg xmlns="http://www.w3.org/2000/svg" width="53" height="53.014" viewBox="0 0 53 53.014">
  <path id="Icon_ionic-ios-settings" data-name="Icon ionic-ios-settings" d="M56.125,34A6.82,6.82,0,0,1,60.5,27.637a27.034,27.034,0,0,0-3.271-7.881,6.911,6.911,0,0,1-2.774.593,6.8,6.8,0,0,1-6.225-9.579A26.952,26.952,0,0,0,40.363,7.5a6.814,6.814,0,0,1-12.726,0,27.033,27.033,0,0,0-7.881,3.271,6.8,6.8,0,0,1-6.225,9.579,6.687,6.687,0,0,1-2.774-.593A27.631,27.631,0,0,0,7.5,27.651a6.818,6.818,0,0,1,.014,12.726,27.033,27.033,0,0,0,3.271,7.881,6.808,6.808,0,0,1,8.985,8.985,27.191,27.191,0,0,0,7.881,3.271,6.8,6.8,0,0,1,12.7,0,27.033,27.033,0,0,0,7.881-3.271,6.814,6.814,0,0,1,8.985-8.985,27.191,27.191,0,0,0,3.271-7.881A6.853,6.853,0,0,1,56.125,34Zm-22,11.028A11.042,11.042,0,1,1,45.166,33.986,11.039,11.039,0,0,1,34.124,45.028Z" transform="translate(-7.5 -7.5)" fill="#fff"/>
</svg>
