<?xml version="1.0" encoding="utf-8"?>
<!-- Generator: Adobe Illustrator 26.3.1, SVG Export Plug-In . SVG Version: 6.00 Build 0)  -->
<svg version="1.1" id="Laag_1" xmlns="http://www.w3.org/2000/svg" xmlns:xlink="http://www.w3.org/1999/xlink" x="0px" y="0px"
	 viewBox="0 0 134 134" style="enable-background:new 0 0 134 134;" xml:space="preserve">
<style type="text/css">
	.st0{fill:#FFFFFF;}
</style>
<g id="Medium-L">
	<path id="Path" class="st0" d="M60.7,133.2h11.7c1.8,0,3.4-0.5,4.7-1.6c1.3-1,2.1-2.5,2.6-4.3l3.1-13.3c1.1-0.4,2.1-0.7,3.1-1.1
		c1-0.4,2-0.8,2.9-1.2l11.6,7.2c1.5,1,3.1,1.4,4.8,1.2s3.1-0.9,4.4-2.1l8.2-8.2c1.3-1.3,2-2.8,2.2-4.5c0.2-1.7-0.3-3.3-1.3-4.9
		l-7.1-11.5c0.5-0.9,0.9-1.9,1.3-2.9c0.4-1,0.7-2,1.1-2.9l13.4-3.2c1.8-0.4,3.3-1.2,4.3-2.5s1.5-2.9,1.5-4.7V61.1
		c0-1.8-0.5-3.4-1.5-4.6s-2.4-2.1-4.3-2.5l-13.3-3.2c-0.4-1.1-0.7-2.1-1.2-3.1c-0.4-1-0.8-1.9-1.2-2.8l7.2-11.7
		c1-1.6,1.5-3.2,1.3-4.8c-0.1-1.6-0.9-3.1-2.2-4.4l-8.3-8.2c-1.3-1.2-2.7-1.9-4.2-2.1c-1.5-0.2-3.1,0.2-4.7,1L88.8,22
		c-0.9-0.4-1.8-0.8-2.9-1.2c-1-0.4-2-0.8-3.1-1.1L79.7,6.2c-0.4-1.8-1.3-3.3-2.6-4.3c-1.3-1-2.8-1.6-4.7-1.6H60.7
		c-1.9,0-3.4,0.5-4.7,1.6c-1.3,1-2.1,2.5-2.5,4.3l-3.2,13.3c-1,0.4-2.1,0.7-3.1,1.1c-1,0.4-2,0.8-2.9,1.3l-11.8-7.3
		c-3.3-1.8-6.2-1.5-9,1l-8.3,8.2c-1.3,1.3-2.1,2.8-2.2,4.4s0.3,3.3,1.3,4.8l7.2,11.7c-0.4,0.8-0.7,1.8-1.1,2.8s-0.8,2-1.1,3.1
		L5.9,54c-1.8,0.4-3.3,1.2-4.3,2.5s-1.5,2.8-1.5,4.6v11.5c0,1.9,0.5,3.5,1.5,4.7s2.4,2.1,4.3,2.5l13.4,3.2c0.3,1,0.6,2,1,2.9
		c0.4,1,0.8,1.9,1.2,2.9l-7.1,11.5c-1,1.6-1.5,3.2-1.3,4.9s0.9,3.2,2.2,4.5l8.2,8.2c1.3,1.3,2.7,2,4.4,2.1s3.2-0.2,4.8-1.2l11.6-7.2
		c0.9,0.4,1.9,0.8,2.9,1.2c1,0.4,2,0.8,3.1,1.1l3.2,13.3c0.4,1.8,1.2,3.3,2.5,4.3C57.3,132.7,58.8,133.2,60.7,133.2z M66.6,89
		c-4.1,0-7.8-1-11.2-3c-3.4-2-6.1-4.7-8.1-8.1c-2-3.4-3-7.1-3-11.2c0-4,1-7.7,3-11.1s4.7-6,8.1-8c3.4-2,7.1-3,11.2-3
		c4.1,0,7.8,1,11.1,3c3.4,2,6.1,4.7,8.1,8c2,3.3,3,7,3,11.1c0,4.1-1,7.8-3,11.2c-2,3.4-4.7,6.1-8.1,8.1C74.4,88,70.7,89,66.6,89z"/>
</g>
</svg>
