<?xml version="1.0" encoding="utf-8"?>
<!-- Generator: Adobe Illustrator 26.3.1, SVG Export Plug-In . SVG Version: 6.00 Build 0)  -->
<svg version="1.1" id="Laag_1" xmlns="http://www.w3.org/2000/svg" xmlns:xlink="http://www.w3.org/1999/xlink" x="0px" y="0px"
	 viewBox="0 0 78 129" style="enable-background:new 0 0 78 129;" xml:space="preserve">
<style type="text/css">
	.st0{fill:#FFFFFF;}
</style>
<g id="Medium-L">
	<path id="Path" class="st0" d="M77,30.7V7.4c0-1.8-0.6-3.2-1.9-4.2c-1.2-1-2.7-1.3-4.4-0.9L38.9,9.2c-4.2,0.9-6.2,3.2-6.2,6.7
		l0.1,69.4c0.2,3.1-1.1,4.9-3.9,5.4l-10.1,2.1c-6.3,1.3-11,3.6-14.1,6.8s-4.6,7.2-4.6,12.1c0,4.9,1.7,8.9,5.1,12
		c3.4,3.1,7.7,4.6,13,4.6c3.3,0,6.8-0.9,10.4-2.6c3.6-1.7,6.7-4.5,9.2-8.2c2.5-3.7,3.8-8.5,3.8-14.5V45.9c0-1.6,0.2-2.7,0.6-3.2
		c0.4-0.5,1.4-0.9,2.9-1.2l28.2-6.2c1.1-0.2,2-0.7,2.7-1.5C76.7,32.8,77,31.9,77,30.7z"/>
</g>
</svg>
