<svg xmlns="http://www.w3.org/2000/svg" width="27.668" height="48.726" viewBox="0 0 27.668 48.726">
  <path id="Songs" d="M42.691,5.648c-.551.105-13.828,2.824-14.32,2.918a1.039,1.039,0,0,0-.949.938h0V39.4a3.232,3.232,0,0,1-.281,1.371,3.123,3.123,0,0,1-1.887,1.488c-.387.129-.914.246-1.535.387-2.824.633-7.547,1.711-7.547,6.07a5.436,5.436,0,0,0,4.1,5.52,8.8,8.8,0,0,0,1.617.117,13.87,13.87,0,0,0,6-1.547,6.314,6.314,0,0,0,2.824-5.6V20.285a.93.93,0,0,1,.75-.914L42.34,17.145a1.882,1.882,0,0,0,1.5-1.84V6.539A.927.927,0,0,0,42.691,5.648Z" transform="translate(-16.172 -5.625)" fill="#fff"/>
</svg>
