<svg xmlns="http://www.w3.org/2000/svg" width="28.67" height="26.846" viewBox="0 0 28.67 26.846">
  <path id="Union_21" data-name="Union 21" d="M15.2,26.427,7.8,20.137H1.814A1.873,1.873,0,0,1,0,18.22V8.637A1.873,1.873,0,0,1,1.814,6.721H7.8L15.2.419A1.757,1.757,0,0,1,16.33,0a1.682,1.682,0,0,1,.782.192,1.933,1.933,0,0,1,1.032,1.737v23a1.927,1.927,0,0,1-1.032,1.725,1.681,1.681,0,0,1-.782.192A1.781,1.781,0,0,1,15.2,26.427Zm8.166-4.181a1.5,1.5,0,0,1-.012-2.037,9.915,9.915,0,0,0,2.608-6.78A9.875,9.875,0,0,0,23.35,6.648a1.5,1.5,0,0,1,.012-2.037,1.311,1.311,0,0,1,1.928.013,12.775,12.775,0,0,1,3.38,8.816,12.807,12.807,0,0,1-3.391,8.793,1.3,1.3,0,0,1-.964.431A1.322,1.322,0,0,1,23.362,22.245Z" fill="#fff"/>
</svg>
