<?xml version="1.0" encoding="utf-8"?>
<!-- Generator: Adobe Illustrator 26.3.1, SVG Export Plug-In . SVG Version: 6.00 Build 0)  -->
<svg version="1.1" id="Laag_1" xmlns="http://www.w3.org/2000/svg" xmlns:xlink="http://www.w3.org/1999/xlink" x="0px" y="0px"
	 viewBox="0 0 174 129" style="enable-background:new 0 0 174 129;" xml:space="preserve">
<style type="text/css">
	.st0{fill:#FFFFFF;}
</style>
<g id="Medium-L">
	<path id="Path" class="st0" d="M68.6,121.4c2.2,0,3.9-0.7,5.3-2.1s2-3.2,2-5.3V17.8c0-2.1-0.7-3.9-2.1-5.4s-3.2-2.2-5.4-2.2
		c-1.5,0-2.8,0.3-4,1c-1.2,0.6-2.6,1.7-4.1,3.2L33.6,39.6c-0.4,0.4-1,0.6-1.7,0.6H13.7c-4.2,0-7.5,1.2-9.9,3.6
		c-2.3,2.4-3.5,5.8-3.5,10.3v23.6c0,4.4,1.2,7.9,3.5,10.3c2.3,2.4,5.6,3.6,9.9,3.6H32c0.7,0,1.2,0.2,1.7,0.6l26.8,25.3
		c1.4,1.3,2.8,2.3,4.1,3S67.2,121.4,68.6,121.4z M99,93.3c1.2,0.8,2.4,1,3.8,0.8c1.3-0.3,2.4-1,3.3-2.2c2.5-3.3,4.5-7.3,5.9-11.8
		c1.4-4.5,2.2-9.3,2.2-14.3c0-5-0.7-9.8-2.2-14.3c-1.4-4.5-3.4-8.5-5.9-11.9c-0.8-1.2-1.9-1.9-3.3-2.1c-1.3-0.3-2.6,0-3.8,0.8
		c-1.3,0.9-2.1,2.1-2.3,3.5c-0.2,1.5,0.2,3,1.3,4.5c1.9,2.7,3.3,5.6,4.3,9c1,3.3,1.5,6.8,1.5,10.5c0,3.7-0.5,7.2-1.5,10.5
		c-1,3.3-2.4,6.3-4.3,9c-1.1,1.5-1.5,3-1.3,4.5C96.9,91.2,97.7,92.4,99,93.3z M123.2,110.1c1.2,0.8,2.5,1.1,3.9,0.8
		c1.4-0.3,2.5-1,3.3-2.3c4.1-5.7,7.3-12.2,9.6-19.7s3.5-15.2,3.5-23.1S142.3,50,140,42.6c-2.3-7.5-5.5-14-9.6-19.7
		c-0.9-1.2-2-2-3.3-2.3c-1.4-0.3-2.7,0-3.9,0.8c-1.3,0.8-2,1.9-2.2,3.4c-0.2,1.4,0.2,2.9,1.2,4.3c3.5,5,6.2,10.6,8.1,16.9
		c1.9,6.3,2.9,12.9,2.9,19.7s-1,13.4-2.9,19.7s-4.6,12-8.1,16.9c-0.9,1.4-1.3,2.9-1.1,4.3C121.2,108.1,121.9,109.3,123.2,110.1z
		 M147.6,127.1c1.2,0.8,2.5,1,3.9,0.7c1.4-0.3,2.5-1.1,3.4-2.4c3.7-5.5,6.8-11.4,9.5-17.7s4.7-12.9,6.2-19.9c1.4-7,2.2-14.3,2.2-22
		c0-7.7-0.7-15-2.2-22s-3.5-13.6-6.2-19.9c-2.7-6.3-5.8-12.2-9.4-17.7c-0.8-1.3-2-2.1-3.4-2.4c-1.4-0.3-2.7,0-3.9,0.8
		c-1.3,0.8-2,1.9-2.2,3.4c-0.2,1.4,0.2,2.9,1.1,4.3c3.2,4.9,6,10.2,8.4,15.9c2.4,5.6,4.3,11.6,5.6,17.9c1.3,6.3,2,12.9,2,19.9
		c0,6.9-0.7,13.5-2,19.8c-1.3,6.3-3.2,12.3-5.6,17.9c-2.4,5.6-5.2,10.9-8.4,15.9c-0.9,1.4-1.3,2.9-1.1,4.3
		C145.6,125.1,146.3,126.3,147.6,127.1z"/>
</g>
</svg>
