<svg xmlns="http://www.w3.org/2000/svg" width="43.436" height="38.331" viewBox="0 0 43.436 38.331">
  <path id="Union_22" data-name="Union 22" d="M34.091,37.9a1.5,1.5,0,0,1,.012-2.036,24,24,0,0,0,6.6-16.7,23.95,23.95,0,0,0-6.6-16.7A1.5,1.5,0,0,1,34.091.429,1.312,1.312,0,0,1,36.019.416a26.907,26.907,0,0,1,7.417,18.748,26.846,26.846,0,0,1-7.428,18.748,1.325,1.325,0,0,1-.953.419A1.3,1.3,0,0,1,34.091,37.9ZM29.1,32.964a1.5,1.5,0,0,1-.012-2.037,17.126,17.126,0,0,0,4.525-11.751A17.126,17.126,0,0,0,29.09,7.424,1.5,1.5,0,0,1,29.1,5.388a1.311,1.311,0,0,1,1.928.013,20.033,20.033,0,0,1,5.307,13.764,20.146,20.146,0,0,1-5.319,13.788,1.293,1.293,0,0,1-.964.432A1.323,1.323,0,0,1,29.1,32.964Zm-13.9-.8L7.8,25.872H1.815A1.874,1.874,0,0,1,0,23.955V14.372a1.873,1.873,0,0,1,1.815-1.916H7.8l7.395-6.3a1.756,1.756,0,0,1,1.134-.419,1.681,1.681,0,0,1,.782.192,1.933,1.933,0,0,1,1.032,1.737v23a1.927,1.927,0,0,1-1.032,1.725,1.68,1.68,0,0,1-.782.192A1.78,1.78,0,0,1,15.2,32.162Zm8.166-4.181a1.5,1.5,0,0,1-.011-2.037,10.117,10.117,0,0,0,0-13.56,1.5,1.5,0,0,1,.011-2.037,1.312,1.312,0,0,1,1.928.013,12.781,12.781,0,0,1,3.379,8.816,12.807,12.807,0,0,1-3.391,8.793,1.3,1.3,0,0,1-.964.431A1.322,1.322,0,0,1,23.363,27.98Z" transform="translate(0 0)" fill="#fff"/>
</svg>
