<?xml version="1.0" encoding="utf-8"?>
<!-- Generator: Adobe Illustrator 26.3.1, SVG Export Plug-In . SVG Version: 6.00 Build 0)  -->
<svg version="1.1" id="Laag_1" xmlns="http://www.w3.org/2000/svg" xmlns:xlink="http://www.w3.org/1999/xlink" x="0px" y="0px"
	 viewBox="0 0 115 113" style="enable-background:new 0 0 115 113;" xml:space="preserve">
<style type="text/css">
	.st0{fill:#FFFFFF;}
</style>
<g id="Medium-L">
	<path id="Path" class="st0" d="M68.9,112.4c2.2,0,3.9-0.7,5.3-2.1s2-3.2,2-5.3V8.8c0-2.1-0.7-3.9-2.1-5.4c-1.4-1.5-3.2-2.2-5.4-2.2
		c-1.5,0-2.8,0.3-4,1c-1.2,0.6-2.6,1.7-4.1,3.2L34,30.6c-0.4,0.4-1,0.6-1.7,0.6H14c-4.2,0-7.5,1.2-9.9,3.6s-3.5,5.8-3.5,10.3v23.6
		c0,4.4,1.2,7.9,3.5,10.3c2.3,2.4,5.6,3.6,9.9,3.6h18.2c0.7,0,1.2,0.2,1.7,0.6l26.8,25.3c1.4,1.3,2.8,2.3,4.1,3
		S67.5,112.4,68.9,112.4z M99.3,84.3c1.2,0.8,2.4,1,3.8,0.8s2.4-1,3.3-2.2c2.5-3.3,4.5-7.3,5.9-11.8c1.4-4.5,2.2-9.3,2.2-14.3
		c0-5-0.7-9.8-2.2-14.3c-1.4-4.5-3.4-8.5-5.9-11.9c-0.8-1.2-1.9-1.9-3.3-2.1c-1.3-0.3-2.6,0-3.8,0.8c-1.3,0.9-2.1,2.1-2.3,3.5
		c-0.2,1.5,0.2,3,1.3,4.5c1.9,2.7,3.3,5.6,4.3,9c1,3.3,1.5,6.8,1.5,10.5c0,3.7-0.5,7.2-1.5,10.5c-1,3.3-2.4,6.3-4.3,9
		c-1.1,1.5-1.5,3-1.3,4.5C97.2,82.2,98,83.4,99.3,84.3z"/>
</g>
</svg>
